PathFileType	4	(X/Y/Z)	KinectSkeleton.trc																																																	
DataRate	CameraRate	NumFrames	NumMarkers	Units	OrigDataRate	OrigDataStartFrame	OrigNumFrames																																													
60	60	11	17	mm	60	310	300																																													
Frame#	Time	Neck			ShoulderMid			R.Shoulder			L.Shoulder			R.Elbow			L.Elbow			R.Wrist			L.Wrist			HipCenter			R.Hip			L.Hip			R.Knee			L.Knee			R.Ankle			L.Ankle			R.Foot			L.Foot		
		X1	Y1	Z1	X2	Y2	Z2	X3	Y3	Z3	X4	Y4	Z4	X5	Y5	Z5	X6	Y6	Z6	X7	Y7	Z7	X8	Y8	Z8	X9	Y9	Z9	X10	Y10	Z10	X11	Y11	Z11	X12	Y12	Z12	X13	Y13	Z13	X14	Y14	Z14	X15	Y15	Z15	X16	Y16	Z16	X17	Y17	Z17
																																																				
310	20.014	-1641.087	1484.983	432.016	-1641.087	1484.983	432.016	-1655.696	1418.836	601.962	-1639.14	1409.737	255.881	-1749.959	1153.821	681.548	-1712.596	1149.17	160.917	-1679.249	921.841	706.938	-1594.817	940.433	137.702	-1708.974	932.997	474.776	-1722.361	941.824	558.619	-1694.127	923.21	381.797	-1744.937	532.771	625.985	-1727.199	508.94	376.308	-1795.979	138.037	677.857	-1778.253	115.082	369.707	-1649.729	54.466	738.256	-1594.594	51.288	364.471
311	20.081	-1640.16	1487.041	413.124	-1640.16	1487.041	413.124	-1658.041	1420.652	583.493	-1639.723	1405.681	238.933	-1747.545	1153.23	662.185	-1722.037	1135.891	184.145	-1684.49	921.24	705.172	-1622.644	916.168	182.088	-1704.552	933.983	459.567	-1719.277	942.639	543.339	-1688.224	924.385	366.668	-1743.2	534.526	619.346	-1726.524	509.919	372.08	-1793.03	140.088	678.898	-1786.222	116.606	374.187	-1650.432	54.573	745.781	-1602.802	51.336	367.723
312	20.137	-1640.775	1484.396	389.165	-1640.775	1484.396	389.165	-1654.591	1422.677	561.534	-1641.798	1388.169	221.138	-1741.048	1156.976	648.399	-1732.65	1117.196	193.082	-1686.753	924.982	701.35	-1641.747	897.174	230.767	-1702.601	933.275	454.101	-1718.013	944.911	537.335	-1685.509	920.371	361.798	-1743.252	537.452	615.068	-1726.152	506.382	367.798	-1794.876	143.855	677.013	-1785.937	113.331	371.504	-1654.494	53.848	742.39	-1601.709	50.616	366.282
313	20.201	-1642.638	1483.725	376.899	-1642.638	1483.725	376.899	-1651.389	1425.656	550.712	-1644.853	1384.463	210.665	-1740.061	1161.833	641.033	-1741.024	1114.511	191.954	-1687.442	929.967	696.229	-1642.385	897.734	229.037	-1700.438	933.113	449.043	-1715.902	945.452	532.169	-1683.289	919.43	356.86	-1738.671	538.297	612.298	-1726.771	505.791	366.817	-1788.823	144.728	675.699	-1789.745	113.276	374.248	-1650.141	51.556	740.282	-1605.188	51.873	365.79
314	20.26	-1644.118	1484.148	354.322	-1644.118	1484.148	354.322	-1646.84	1429.95	529.04	-1651.332	1387.181	187.347	-1736.807	1170.01	628.705	-1742.165	1115.235	171.798	-1681.999	938.503	683.108	-1634.264	902.3	204.887	-1700.503	934.061	431.34	-1712.555	946.915	514.937	-1687.139	919.806	338.633	-1733.547	541.434	603.281	-1728.409	506.359	358.4	-1784.707	149.332	674.133	-1788.198	113.709	375.426	-1649.639	51.36	739.193	-1604.647	49.361	367.692
315	20.327	-1646.972	1478.551	337.191	-1646.972	1478.551	337.191	-1650.212	1429.311	512.195	-1650.567	1381.503	171.713	-1737.47	1171.016	614.212	-1746.677	1113.582	147.195	-1674.044	942.286	665.405	-1641.599	901.411	185.122	-1697.022	931.801	420.918	-1710.465	945.428	503.739	-1682.114	916.689	329.072	-1716.577	543.441	600.164	-1725.968	505.858	353.387	-1780.375	154.375	665.884	-1788.697	115.904	374.69	-1652.645	53.118	737.892	-1606.193	51.439	367.802
316	20.389	-1652.333	1475.058	318.602	-1652.333	1475.058	318.602	-1653.969	1425.185	493.748	-1658.474	1374.185	155.351	-1736.673	1167.198	599.562	-1749.626	1105.121	127.46	-1667.328	939.119	644.65	-1634.792	898.92	168.61	-1694.037	929.626	412.539	-1706.439	944.758	495.188	-1680.284	912.844	320.885	-1689.42	543.667	592.53	-1727.231	502.87	347.788	-1763.64	156.043	653.611	-1790.034	113.475	372.612	-1635.622	57.65	728.638	-1607.043	50.871	366.073
317	20.46	-1659.398	1475.095	303.129	-1659.398	1475.095	303.129	-1663.211	1423.326	478.671	-1659.468	1368.683	142.407	-1740.821	1164.482	587.628	-1754.818	1100.506	114.817	-1658.16	940.198	631.614	-1638.941	896.774	166.48	-1691.74	929.628	406.945	-1702.15	946.013	489.785	-1680.194	911.457	315.08	-1663.548	546.045	588.688	-1724.696	500.817	346.861	-1727.722	155.054	644.066	-1785.607	110.679	375.611	-1587.767	69.023	713.516	-1602.179	48.598	366.606
318	20.524	-1664.487	1472.969	286.924	-1664.487	1472.969	286.924	-1670.573	1424	462.879	-1662.169	1365.544	127.408	-1750.508	1166.43	572.12	-1752.544	1095.98	100.608	-1666.44	943.429	618.099	-1636.573	895.226	161.4	-1689.174	929.804	400.603	-1698.843	947.776	483.085	-1678.451	909.874	309.135	-1635.407	551.196	580.466	-1723.717	500.194	344.694	-1657.125	157.157	642.818	-1790.902	111.82	375.876	-1507.311	88.283	710.184	-1608.028	48.963	366.654
319	20.586	-1669.499	1467.737	272.622	-1669.499	1467.737	272.622	-1678.37	1419.374	447.915	-1667.519	1360.868	114.261	-1759.513	1165.989	561.978	-1756.156	1091.836	92.323	-1675.54	944.279	607.815	-1644.224	892.773	160.912	-1689.076	928.98	395.035	-1692.374	948.165	477.296	-1685.419	907.706	303.811	-1606.478	558.044	574.571	-1722.019	499.615	342.809	-1572.719	170.295	655.212	-1780.528	112.264	378.244	-1412.279	123.721	714.297	-1599.25	48.72	364.247
320	20.665	-1677.551	1468.565	259.896	-1677.551	1468.565	259.896	-1687.526	1423.749	436.384	-1675.894	1358.963	103.139	-1762.782	1171.425	557.885	-1755.739	1086.509	83.312	-1672.989	953.591	612.643	-1642.685	888.981	155.845	-1687.281	930.244	390.511	-1687.381	950.199	472.807	-1687.17	908.115	299.248	-1568.832	571.808	584.144	-1717.419	499.167	342.158	-1482.065	196.53	685.069	-1775.228	111.296	380.612	-1310.355	179.987	726.944	-1593.869	47.69	363.609
